<svg xmlns="http://www.w3.org/2000/svg"><style>:root svg:not(:target){display:none}</style><svg viewBox="0 0 40 40" fill="none" id="example_cbutton"><rect x="1" y="1" width="38" height="38" rx="19" fill="white"></rect><rect x="1" y="1" width="38" height="38" rx="19" stroke="currentColor" stroke-width="2"></rect><path d="M16 11L8 20L16 29V11Z" fill="currentColor"></path><path d="M32 20L24 11V29L32 20Z" fill="currentColor"></path></svg><svg viewBox="0 0 78 81" fill="none" id="catalog_icon_gift"><path d="M64.0156 35.6325H14.031C12.2766 35.6325 10.8494 34.2144 10.8494 32.4709V22.9989C10.8494 21.2554 12.2766 19.8367 14.031 19.8367H64.0149C65.7687 19.8367 67.1953 21.2554 67.1953 22.9989V32.4715C67.1959 34.2144 65.7693 35.6325 64.0156 35.6325ZM14.031 22.2598C13.6276 22.2598 13.2869 22.5984 13.2869 22.9989V32.4715C13.2869 32.8786 13.6208 33.21 14.031 33.21H64.0149C64.4244 33.21 64.7578 32.8786 64.7578 32.4715V22.9989C64.7578 22.5978 64.4171 22.2598 64.0149 22.2598H14.031Z" fill="white"></path><path d="M57.0447 68.0821H20.999C17.6218 68.0821 14.8741 65.3512 14.8741 61.9933V34.421C14.8741 33.7523 15.4201 33.2095 16.0929 33.2095C16.7656 33.2095 17.3116 33.7523 17.3116 34.421V61.9933C17.3116 64.0148 18.9661 65.6589 20.999 65.6589H57.0447C59.077 65.6589 60.7308 64.0148 60.7308 61.9933V34.421C60.7308 33.7523 61.2768 33.2095 61.9496 33.2095C62.6223 33.2095 63.1683 33.7523 63.1683 34.421V61.9933C63.1683 65.3512 60.4213 68.0821 57.0447 68.0821Z" fill="white"></path><path d="M39.0225 68.0821C38.3498 68.0821 37.8038 67.5399 37.8038 66.8705V34.421C37.8038 33.7523 38.3498 33.2095 39.0225 33.2095C39.6953 33.2095 40.2413 33.7523 40.2413 34.421V66.8699C40.2413 67.5399 39.6959 68.0821 39.0225 68.0821Z" fill="white"></path><path d="M23.8113 22.2556C19.9966 20.2008 18.5731 15.4442 20.6383 11.6513C22.7022 7.86033 27.4864 6.44461 31.303 8.4958C37.117 11.6265 40.2565 20.3607 40.3869 20.7308L38.0877 21.5347C38.0585 21.4523 35.1256 13.31 30.1433 10.627C27.5078 9.21063 24.2062 10.1884 22.7821 12.8047C21.3567 15.4236 22.339 18.7069 24.9734 20.1251L23.8113 22.2556Z" fill="white"></path><path d="M54.2313 22.2556L53.071 20.1244C54.3477 19.4369 55.2782 18.2974 55.6926 16.9156C56.1063 15.5332 55.9534 14.0732 55.2617 12.8053C54.5719 11.5362 53.4263 10.6118 52.0363 10.2005C50.6457 9.78913 49.1783 9.94058 47.9023 10.6269C42.9201 13.3093 39.9871 21.4517 39.9579 21.5341L37.6587 20.7302C37.7891 20.3601 40.928 11.6259 46.7421 8.49578C48.5897 7.50109 50.7182 7.28179 52.7316 7.87788C54.7468 8.47337 56.4061 9.81397 57.4061 11.6513C58.4073 13.4881 58.6285 15.6029 58.0289 17.6062C57.4287 19.6089 56.0801 21.2597 54.2313 22.2556Z" fill="white"></path><path d="M61.9496 51.8567H16.0929C15.4201 51.8567 14.8741 51.3142 14.8741 50.6456C14.8741 49.9771 15.4201 49.4346 16.0929 49.4346H61.9496C62.6223 49.4346 63.1683 49.9771 63.1683 50.6456C63.1683 51.3142 62.6229 51.8567 61.9496 51.8567Z" fill="white"></path></svg><svg viewBox="0 0 30 30" fill="none" id="catalog_plus-mobile"><line x1="15" x2="15" y2="30" stroke="currentColor" stroke-width="2"></line><line x1="30" y1="15" y2="15" stroke="currentColor" stroke-width="2"></line></svg><svg viewBox="0 0 60 60" fill="none" id="catalog_plus-tablet"><line x1="31" x2="31" y2="60" stroke="currentColor" stroke-width="2"></line><line x1="60" y1="31" y2="31" stroke="currentColor" stroke-width="2"></line></svg><svg viewBox="0 0 32 12" fill="none" id="catalog-select_arrow"><line y1="6" x2="26" y2="6" stroke="black" stroke-width="2"></line><path d="M32 6L25.25 11.1962L25.25 0.803848L32 6Z" fill="black"></path></svg><svg viewBox="0 0 268 112" fill="none" id="catalog-select_fat"><path d="M246.236 11.5137C248.545 7.83987 251.614 4.70291 255.236 2.31371C257.236 0.913709 258.436 0.913708 259.636 3.51371C261.236 7.31371 262.636 11.3137 261.436 15.5137C261.218 16.226 261.177 16.9809 261.316 17.7128C261.456 18.4447 261.772 19.1315 262.236 19.7137C263.436 21.3137 264.436 22.9137 265.436 24.3137C266.797 26.0412 267.68 28.0963 267.996 30.2728C268.312 32.4492 268.05 34.6705 267.236 36.7137C266.502 38.6973 266.363 40.8522 266.836 42.9137C267.236 44.8937 267.236 46.9337 266.836 48.9137C266.675 50.3965 266.075 51.7975 265.113 52.9375C264.151 54.0775 262.871 54.9048 261.436 55.3137C258.878 55.8005 256.595 57.2275 255.036 59.3137C254.848 59.6209 254.583 59.8743 254.267 60.0495C253.952 60.2246 253.597 60.3156 253.236 60.3137C250.836 60.7137 244.836 55.3137 244.836 52.9137V51.7137C245.036 44.5137 244.636 43.9137 238.036 40.9137C236.655 40.4265 235.417 39.6015 234.436 38.5137C233.236 36.9137 231.636 37.1137 229.836 37.7137C228.036 38.3137 227.036 39.5137 227.236 41.5137C227.84 46.3554 228.04 51.2388 227.836 56.1137C227.85 56.6701 227.986 57.2165 228.236 57.7137C234.436 66.7137 236.836 77.3137 239.836 87.5137C242.236 95.3137 246.636 99.5137 254.636 100.114C255.917 100.216 257.187 100.416 258.436 100.714C260.08 100.978 261.607 101.729 262.819 102.87C264.031 104.011 264.873 105.489 265.236 107.114C266.636 111.314 265.836 112.314 261.636 112.314H248.636C246.953 112.399 245.303 111.825 244.036 110.714C242.012 109.005 239.713 107.653 237.236 106.714C234.499 105.703 232.129 103.891 230.436 101.514C228.094 98.2407 225.412 95.224 222.436 92.5137C216.836 86.7137 210.836 81.1137 205.636 75.1137C201.678 71.0253 199.395 65.6023 199.236 59.9137C199.236 58.1137 198.836 57.3137 196.836 58.1137C196.238 58.4937 195.546 58.7012 194.836 58.7137C189.236 58.7137 186.436 62.1137 184.436 67.1137C182.636 71.3137 180.236 75.3137 178.036 79.5137C176.789 82.1428 176.108 85.0046 176.036 87.9137C176.036 92.7137 177.236 94.3137 181.636 95.9137C184.436 96.9137 187.036 97.9137 188.436 100.714C190.036 103.914 189.636 104.714 186.236 104.914H172.636C171.852 104.991 171.064 104.821 170.382 104.426C169.7 104.031 169.16 103.432 168.836 102.714L165.236 96.7137C164.175 95.1482 163.496 93.3557 163.253 91.4801C163.01 89.6045 163.21 87.6981 163.836 85.9137C164.702 82.4407 164.77 78.8169 164.036 75.3137C163.532 72.8739 163.576 70.3527 164.164 67.9318C164.752 65.5108 165.869 63.2505 167.436 61.3137C168.636 59.9137 168.636 59.3137 166.636 58.9137C158.458 57.1765 150.53 54.4217 143.036 50.7137C142.983 50.7137 142.933 50.6926 142.895 50.6551C142.858 50.6176 142.836 50.5667 142.836 50.5137C136.436 48.1137 135.236 48.5137 133.436 55.1137C131.836 60.7137 130.236 66.3137 129.036 72.1137C127.636 78.5137 129.236 84.5137 131.236 90.5137C132.036 92.9137 134.436 92.7137 136.236 93.3137C140.236 94.5137 143.636 96.1137 145.236 100.314C146.636 103.514 146.436 103.914 143.036 103.914C139.636 103.914 136.236 103.714 132.636 103.914C129.599 103.969 126.634 102.98 124.236 101.114C114.636 94.7137 111.836 84.9137 111.036 74.3137C110.636 67.7137 107.036 62.5137 102.836 57.5137C102.036 56.5137 101.236 56.1137 100.036 56.9137C95.7434 59.2808 91.2614 61.2877 86.6365 62.9137C76.985 66.3217 68.5157 72.4306 62.2365 80.5137C59.8918 83.4637 58.3732 86.9839 57.8365 90.7137C57.2365 94.3137 58.2365 95.9137 61.8365 96.9137C65.4365 97.9137 67.2365 99.9137 67.6365 103.714C67.8365 105.314 67.2365 106.114 65.6365 106.114H49.4365C48.9063 106.076 48.393 105.911 47.9403 105.632C47.4876 105.354 47.1089 104.97 46.8365 104.514C44.3242 101.403 42.9798 97.5116 43.0365 93.5137C42.9315 86.6036 43.5346 79.7009 44.8365 72.9137C45.1034 70.8811 45.8623 68.9443 47.0473 67.2714C48.2323 65.5984 49.8075 64.2399 51.6365 63.3137C63.4365 57.7137 69.6365 47.1137 75.2365 36.1137C76.4365 33.9137 75.4365 33.5137 73.4365 33.7137C67.8391 34.4908 62.5358 36.6947 58.0365 40.1137C52.1448 44.4114 46.5949 49.1589 41.4365 54.3137C35.9358 59.901 28.6418 63.3709 20.8365 64.1137C6.23646 64.9137 -0.56354 56.7137 0.0364599 43.5137C0.170585 39.0129 1.86775 34.6993 4.83646 31.3137C5.8685 29.9757 7.27593 28.9757 8.87899 28.4413C10.4821 27.907 12.208 27.8625 13.8365 28.3137C16.8365 29.1137 17.6365 30.7137 16.4365 33.7137C15.8365 34.9137 15.0365 35.9137 14.4365 37.1137C13.5737 38.3396 12.8995 39.6879 12.4365 41.1137C10.2365 47.1137 13.2365 51.3137 19.4365 51.9137C26.0365 52.5137 31.4365 49.7137 36.4365 45.7137C42.4603 40.8902 47.8379 35.311 52.4365 29.1137C55.875 24.5885 60.2046 20.8163 65.1581 18.03C70.1116 15.2436 75.5837 13.5024 81.2365 12.9137C85.8365 12.3137 89.8365 10.3137 94.2365 9.11371C102.465 6.60492 111.034 5.39042 119.636 5.51371C123.621 5.67964 127.59 4.9269 131.236 3.31371C141.036 -0.686291 151.236 -0.686292 161.436 1.31371C169.436 2.91371 177.436 4.91371 185.236 6.91371C189.878 7.77866 194.651 7.64229 199.236 6.51371C208.014 4.28878 216.992 2.94875 226.036 2.51371C231.961 2.22544 237.867 3.39278 243.236 5.91371C247.236 7.71371 247.236 7.71371 246.236 11.5137Z" fill="black"></path></svg><svg viewBox="0 0 140 194" fill="none" id="catalog-select_slim"><path d="M109.68 0H108.92C107.636 0.725875 106.614 1.83883 106 3.18C104.875 5.34423 104.009 7.63331 103.42 10C103.294 10.7116 102.934 11.3611 102.398 11.8462C101.863 12.3313 101.181 12.6246 100.46 12.68C98.2558 13.06 96.1675 13.9386 94.3546 15.2489C92.5418 16.5591 91.0523 18.2663 90 20.24C88.5532 22.8026 87.3158 25.478 86.3 28.24C83.46 35.6 81.28 43.2 78.6 50.62C77.34 54 77.28 54 73.48 54C68.94 54 69.26 53.3 69.2 58.3C69.2 59.88 69.68 60.68 71.36 60.6C71.88 60.6 72.66 60.34 72.86 61.02C73.06 61.7 72.38 62 71.98 62.4C69.6086 64.8073 66.6075 66.4984 63.32 67.28C59.52 68.3 55.64 69.1 51.94 70.34C42.44 73.52 33.66 77.96 26.82 85.48C22.8206 90.1507 19.6177 95.4483 17.34 101.16C10 118.44 6.44 136.64 3.68 155.02C2.38 163.64 1.46 172.3 0.76 181.02C0.4 185.3 0 189.64 0 194H66.66C66.7707 193.12 66.6102 192.227 66.2 191.44C65.5589 189.844 64.5171 188.441 63.1753 187.365C61.8335 186.29 60.237 185.578 58.54 185.3C57.14 184.98 56.98 184.56 57.84 183.46C59.2427 181.588 60.318 179.492 61.02 177.26C64.28 167.64 65.54 157.6 67.12 147.66C68.0125 140.068 70.3477 132.716 74 126C76.8488 121.057 80.6486 116.727 85.18 113.26C86.84 112 86.9 112 87.18 114.14C87.38 115.56 87.42 117.02 87.52 118.46C88.1202 127.909 87.9998 137.39 87.16 146.82C86.4048 154.13 86.3044 161.492 86.86 168.82C87.6551 177.327 89.1739 185.751 91.4 194H118C117.653 191.835 116.656 189.826 115.142 188.241C113.627 186.655 111.667 185.567 109.52 185.12C107.013 184.722 104.45 184.858 102 185.52C100.8 185.8 100.3 185.52 100.2 184.22C99.3725 173.632 100.046 162.98 102.2 152.58C104.868 140.574 106.91 128.438 108.32 116.22C108.845 111.286 110.398 106.517 112.88 102.22C115.26 97.98 117.34 93.58 119.68 89.32C120.609 87.771 121.168 86.0286 121.314 84.2282C121.46 82.4279 121.188 80.6182 120.52 78.94C119.98 77.52 119.46 76.08 118.8 74.72C116.8 70.82 114.8 66.96 112.96 63.02C111.98 61.02 112.2 60.78 114.38 60.72C117.64 60.72 117.64 60.72 117.7 57.44C117.7 57 117.7 56.56 117.7 56.12C117.7 54.74 117.18 53.98 115.7 54.12C114.7 54.12 113.7 54.12 112.66 54.12C111.28 54.12 110.88 53.54 111.22 52.12C111.895 49.8116 113.222 47.7473 115.042 46.1755C116.862 44.6037 119.098 43.5912 121.48 43.26C125.911 42.8758 130.376 43.1657 134.72 44.12C135.221 44.2779 135.765 44.2322 136.232 43.9927C136.7 43.7531 137.055 43.3391 137.22 42.84C138.02 40.84 138.9 38.84 139.8 36.84C140.004 36.4852 140.094 36.0763 140.058 35.6686C140.023 35.2608 139.863 34.8739 139.6 34.56C133.2 26.44 126.26 18.86 116.8 14C116.343 13.8033 115.942 13.4952 115.635 13.1039C115.328 12.7127 115.123 12.2506 115.04 11.76C114.505 8.90102 113.653 6.11051 112.5 3.44C111.959 2.01723 110.969 0.809563 109.68 0V0Z" fill="black"></path></svg><svg viewBox="0 0 202 59" fill="none" id="page-header_logo-desktop"><g clip-path="url(#page-header_logo-desktop_0)"><path d="M59.7434 23.8063C58.0235 19.7092 55.2535 16.1318 51.7097 13.4305C48.1658 10.7293 43.9717 8.99857 39.5455 8.41088C35.1192 7.82319 30.6153 8.39905 26.4827 10.0811C22.35 11.7631 18.7329 14.4925 15.9918 17.9973C13.2507 21.5021 11.4814 25.6599 10.8601 30.0564C10.2388 34.4529 10.7873 38.9344 12.4509 43.0545C14.1145 47.1745 16.8351 50.7892 20.3416 53.5382C23.8482 56.2872 28.0181 58.0746 32.4359 58.7223C31.8572 56.6491 31.2685 54.3578 30.7497 51.9275C32.259 52.9009 33.8476 53.747 35.4989 54.457C35.4989 54.457 35.6186 56.5995 35.7782 58.9901C37.5624 59.0207 39.3448 58.8644 41.0961 58.5239C41.0508 58.2746 41.0508 58.0193 41.0961 57.77C41.3854 55.9151 42.1836 52.5723 42.3432 50.4198C43.4939 49.3498 44.47 48.1082 45.2366 46.7397L45.1767 47.1762C44.628 51.4018 43.4806 55.9151 42.7822 57.1649C42.5561 57.5786 42.2778 57.962 41.9541 58.3056C45.5656 57.4633 48.9497 55.8502 51.8717 53.5781C54.7937 51.3059 57.1837 48.4292 58.876 45.1473C60.5683 41.8653 61.5224 38.2568 61.6722 34.5717C61.822 30.8867 61.1638 27.2133 59.7434 23.8063ZM58.2768 27.5657C57.8378 27.9923 56.9299 28.2799 56.7802 26.9904C56.6305 25.7009 56.5906 24.7983 56.5906 24.7983C56.5906 24.7983 54.665 21.3959 53.9467 21.3563C53.2283 21.3166 48.13 24.7983 46.7831 26.3159C45.6157 27.5955 45.3863 27.5062 45.3863 29.7579C45.3863 31.4541 45.6058 37.862 45.486 42.7621L37.3546 44.9146C34.7988 45.6438 32.1997 46.2137 29.5724 46.6207L28.5747 40.8378H28.435L25.8709 27.774C25.8709 27.774 22.0696 26.3457 20.6728 25.9588C20.0169 25.6735 19.2926 25.5808 18.5855 25.6915C17.8783 25.8023 17.2178 26.1118 16.6819 26.5837C16.1352 27.0597 15.698 27.6471 15.4001 28.3061C15.1023 28.9651 14.9507 29.6802 14.9558 30.4027C15.1667 30.8637 15.3273 31.3459 15.4347 31.841C15.4846 32.3171 14.2375 32.2675 13.4393 32.2675C12.6411 32.2675 12.5214 30.8391 13.15 29.1627C13.6403 27.8737 14.2482 26.632 14.9658 25.4529C15.5056 24.3997 16.2018 23.4333 17.0311 22.5862C17.0311 22.5862 17.1708 22.249 18.2782 22.3482C19.3857 22.4474 25.5416 22.7747 25.5416 22.7747L25.5915 20.523C32.2826 19.6045 39.0309 19.1603 45.7853 19.1938C45.7853 19.7989 45.7853 20.404 45.7853 21.0091C48.3438 19.8483 51.0986 19.1754 53.9068 19.0252C54.057 19.0214 54.2059 19.0548 54.34 19.1223C54.474 19.1898 54.5892 19.2894 54.675 19.4121C55.0142 19.8386 57.0795 22.3879 57.319 22.7549C57.9896 23.7078 58.5995 24.7017 59.1448 25.7307C58.9579 26.3822 58.6646 26.9988 58.2768 27.5558V27.5657Z" fill="#FDC305"></path><path d="M56.3312 21.4951C56.8001 22.0903 57.2092 22.616 57.3289 22.7747C57.9996 23.7277 58.6094 24.7215 59.1547 25.7505C58.9649 26.3806 58.6753 26.9767 58.2967 27.5161C57.8577 27.9427 56.9498 28.2303 56.8001 26.9408C56.6505 25.6513 56.5906 24.7983 56.5906 24.7983C56.5906 24.7983 54.665 21.3959 53.9467 21.3563C53.2283 21.3166 48.13 24.7983 46.783 26.3159C45.6157 27.5955 45.3862 27.5062 45.3862 29.7579C45.3862 31.2458 45.5558 36.3542 45.5159 40.8973C47.3218 41.0957 49.9757 41.5916 50.7739 42.7621C50.7739 42.7621 50.4846 35.64 58.5661 39.3697C58.5661 39.3697 58.8455 29.6587 70 32.1485C66.2081 27.7223 61.5597 24.0994 56.3312 21.4951Z" fill="#F06351"></path><path d="M45.8252 19.1938C45.8658 13.6973 45.3982 8.2087 44.4284 2.79724C44.4284 2.79724 44.2788 1.50773 43.5604 2.55918C42.9676 3.81617 42.5642 5.15308 42.3631 6.5269C38.0981 6.25483 33.817 6.36771 29.5724 6.86415C28.7543 4.13635 27.3575 2.89643 26.689 3.22377C26.0205 3.55111 25.9407 6.4773 25.9407 6.4773L25.6115 20.523C32.3091 19.6036 39.0641 19.1594 45.8252 19.1938Z" fill="#F06351"></path><path d="M45.2458 46.7397C45.3755 45.6784 45.4453 44.2698 45.4852 42.7125L37.3542 44.865C34.7996 45.611 32.2006 46.1974 29.5724 46.6207L30.6798 51.5804C30.6798 51.6895 30.6798 51.7986 30.7496 51.9077C32.2589 52.8811 33.8474 53.7272 35.4985 54.4371C37.9116 53.2903 40.2099 51.9186 42.3625 50.3404V50.4C43.5079 49.3352 44.4805 48.1005 45.2458 46.7397Z" fill="#E55645"></path><path d="M31.927 16.0891C31.8771 15.9899 32.9247 16.7636 33.3337 17.0017C33.7428 17.2397 33.9423 17.4183 33.9423 17.5869C33.9423 17.7556 33.6829 17.9242 33.3238 17.9242C32.9646 17.9242 32.4059 17.8051 32.3261 17.6663C32.2463 17.5274 32.9247 17.6663 33.2639 17.6663H33.5532C32.939 17.2195 32.3915 16.6885 31.927 16.0891Z" fill="black"></path><path d="M39.4099 16.1982C39.4099 16.1982 38.4122 17.4679 38.3224 17.5274C38.2326 17.5869 38.1528 17.8647 38.512 17.8151C38.9243 17.7539 39.3312 17.661 39.7291 17.5373C39.8389 17.4778 39.799 17.3389 39.6094 17.3588C39.4199 17.3786 38.931 17.4084 38.6117 17.4679L39.4598 16.2081C39.4598 16.2081 39.4897 16.0891 39.4099 16.1982Z" fill="black"></path><path d="M36.277 22.2589C36.7395 22.0563 37.1217 21.7077 37.3645 21.267C37.6438 20.6123 37.3645 20.3643 36.9255 20.275C36.3216 20.1655 35.6983 20.2859 35.1796 20.6123C34.7905 20.9793 34.8404 21.3364 35.1796 21.6042C35.5166 21.867 35.8852 22.0869 36.277 22.2589Z" fill="black"></path><path d="M35.9177 23.5087C35.8031 23.7337 35.6475 23.9355 35.4587 24.1039C35.1746 24.3312 34.8253 24.4631 34.4611 24.4808C33.9118 24.5344 33.3626 24.3784 32.9247 24.0444C32.7236 23.9274 32.5446 23.7764 32.3959 23.598C32.2961 23.49 32.1734 23.4053 32.0367 23.35C32.0367 23.35 32.785 27.4269 34.6008 28.0815C36.4165 28.7362 36.7557 27.3277 36.8056 26.9507C36.8664 25.8218 36.5811 24.7011 35.9875 23.7369C35.9875 23.4393 35.9676 23.6377 35.9177 23.5087Z" fill="#F06351"></path><path d="M34.2216 24.6395C33.7547 24.5728 33.3063 24.4127 32.9033 24.1689C32.5004 23.9251 32.1513 23.6027 31.8771 23.2211C31.8526 23.1938 31.839 23.1585 31.839 23.1219C31.839 23.0853 31.8526 23.05 31.8771 23.0227C31.8901 23.0095 31.9056 22.999 31.9228 22.9919C31.9399 22.9847 31.9583 22.981 31.9769 22.981C31.9954 22.981 32.0138 22.9847 32.031 22.9919C32.0481 22.999 32.0636 23.0095 32.0766 23.0227C32.3235 23.3671 32.6367 23.6593 32.9981 23.8823C33.3595 24.1054 33.7618 24.2549 34.1817 24.3221C34.5139 24.2973 34.8355 24.1945 35.1199 24.022C35.4044 23.8496 35.6436 23.6125 35.8179 23.3302L35.9576 23.1417L36.0573 23.36C36.0573 23.36 36.4364 24.1138 37.055 24.1535C37.6736 24.1932 38.1125 23.7369 38.6812 22.8739C38.7024 22.8423 38.7353 22.8204 38.7727 22.813C38.8101 22.8055 38.849 22.8132 38.8807 22.8342C38.9125 22.8553 38.9345 22.888 38.942 22.9252C38.9495 22.9624 38.9418 23.001 38.9206 23.0326C38.2555 24.0047 37.627 24.4709 37.035 24.4312C36.8063 24.4011 36.5871 24.3204 36.3938 24.1951C36.2004 24.0698 36.0378 23.9031 35.9177 23.7071C35.7225 23.9781 35.4689 24.2025 35.1755 24.3638C34.8821 24.5251 34.5563 24.6193 34.2216 24.6395Z" fill="black"></path><path d="M36.1771 37.9909C38.2433 37.9909 39.9183 36.3255 39.9183 34.2712C39.9183 32.2168 38.2433 30.5514 36.1771 30.5514C34.1108 30.5514 32.4358 32.2168 32.4358 34.2712C32.4358 36.3255 34.1108 37.9909 36.1771 37.9909Z" fill="#FDC305"></path><path d="M41.1355 31.2458L38.0128 32.5452L39.1601 26.9607L31.6776 36.6419L34.8003 35.3425L33.653 40.937L41.1355 31.2458ZM33.7627 35.0449L37.913 29.6786L37.1049 33.6463L39.1003 32.8329L34.92 38.2092L35.7282 34.2414L33.7627 35.0449Z" fill="#111111"></path><path d="M32.3659 33.5868C32.983 33.5868 33.4833 33.0894 33.4833 32.4758C33.4833 31.8622 32.983 31.3648 32.3659 31.3648C31.7488 31.3648 31.2485 31.8622 31.2485 32.4758C31.2485 33.0894 31.7488 33.5868 32.3659 33.5868Z" fill="#111111"></path><path d="M38.871 37.614C39.3063 37.614 39.6592 37.2631 39.6592 36.8304C39.6592 36.3976 39.3063 36.0467 38.871 36.0467C38.4358 36.0467 38.0829 36.3976 38.0829 36.8304C38.0829 37.2631 38.4358 37.614 38.871 37.614Z" fill="#111111"></path><path d="M39.8288 35.4615C40.0216 35.4615 40.178 35.3061 40.178 35.1143C40.178 34.9226 40.0216 34.7672 39.8288 34.7672C39.6359 34.7672 39.4796 34.9226 39.4796 35.1143C39.4796 35.3061 39.6359 35.4615 39.8288 35.4615Z" fill="#111111"></path><path d="M45.7753 20.9892C43.9742 22.6034 42.278 24.3295 40.6969 26.1572C39.1219 27.9717 37.3445 29.6023 35.399 31.0177C35.1795 30.4919 33.7727 29.5099 33.7727 29.5099C33.7727 29.5099 30.6399 27.3773 28.5846 25.7009C27.4735 24.7809 26.4268 23.7867 25.4517 22.7251L23.4563 22.616C26.3368 26.7991 30.5566 29.8897 35.4289 31.3847C36.287 31.2458 38.7014 29.5298 40.5073 28.1311C42.6438 26.3247 44.6446 24.3654 46.4936 22.2688C46.9906 21.6816 47.376 21.0094 47.631 20.285C46.4936 20.6619 45.7753 20.9892 45.7753 20.9892Z" fill="#F06351"></path><path d="M65.0708 3.47176L56.6305 12.8356L55.4133 10.8616L63.5443 0L65.0708 3.47176Z" fill="#FDC305"></path><path d="M62.507 17.1207L68.0341 13.0439L67.2559 9.33406L61.8685 14.1052L62.507 17.1207Z" fill="#FDC305"></path><path d="M59.7833 48.9716L65.899 52.1259L68.902 49.8048L62.2276 47.077L59.7833 48.9716Z" fill="#FDC305"></path><path d="M1.94543 5.92182L5.00828 2.58894L14.2766 11.5163L13.0595 13.7779L1.94543 5.92182Z" fill="#FDC305"></path><path d="M7.36287 16.1486L2.67383 13.0439L0.279419 16.8827L5.41742 19.2633L7.36287 16.1486Z" fill="#FDC305"></path><path d="M13.878 52.1259L9.33862 55.4489L12.1321 59L16.1427 55.0124L13.878 52.1259Z" fill="#FDC305"></path><path d="M25.8708 27.774C25.8708 27.774 22.0695 26.3457 20.6727 25.9588C20.0169 25.6735 19.2926 25.5808 18.5855 25.6915C17.8783 25.8023 17.2178 26.1118 16.6819 26.5837C16.1351 27.0597 15.6979 27.6471 15.4001 28.3061C15.1022 28.9651 14.9507 29.6802 14.9558 30.4027C15.1667 30.8637 15.3273 31.3459 15.4347 31.841C15.4846 32.3171 14.2374 32.2675 13.4393 32.2675C12.6411 32.2675 12.5214 30.8391 13.1499 29.1627C13.6403 27.8737 14.2481 26.632 14.9658 25.4529C9.52821 28.27 0 34.7771 0 34.7771C2.72546 34.6137 5.46016 34.6933 8.17132 35.0151C13.4093 35.5409 13.1599 39.6474 13.1599 39.6474C15.0022 39.1425 16.8798 38.7745 18.7771 38.5464C20.8922 38.4075 21.0419 40.6493 21.0419 40.6493L21.5707 44.4781C22.3736 43.6145 23.2591 42.8305 24.2146 42.1372C25.4463 41.157 27.0145 40.6942 28.5846 40.8477L25.8708 27.774Z" fill="#F06351"></path><path d="M85.4235 38.2159C84.3913 36.7277 83.8977 34.9474 84.0207 33.156V25.844C83.8905 24.0394 84.3766 22.2435 85.4035 20.7354C86.332 19.572 87.9185 18.9936 90.1629 19.0001C92.4074 19.0066 93.927 19.5168 94.722 20.5307C95.6912 21.7872 96.1642 23.3407 96.0546 24.9081V26.624H91.9064V24.7619C91.9008 24.2719 91.8572 23.7831 91.7761 23.2995C91.726 22.9494 91.5607 22.6245 91.3052 22.3733C91.1474 22.2417 90.9642 22.1419 90.7664 22.08C90.5685 22.0181 90.36 21.9951 90.1529 22.0126C89.8555 21.9694 89.5517 22.0164 89.2827 22.1473C89.0138 22.2781 88.7928 22.4864 88.6499 22.7438C88.3864 23.4284 88.2705 24.1585 88.3092 24.8886V34.1699C88.2635 34.9049 88.3974 35.6399 88.7 36.3148C88.8446 36.5582 89.0591 36.7553 89.3172 36.8817C89.5753 37.0082 89.8658 37.0585 90.1529 37.0265C90.435 37.0653 90.7225 37.0164 90.9744 36.8869C91.2263 36.7573 91.4297 36.5537 91.5557 36.305C91.798 35.6191 91.9035 34.8944 91.8663 34.1699V32.2201H96.0145V33.9067C96.1366 35.4972 95.7023 37.0812 94.7821 38.4011C93.9003 39.4735 92.3773 40 90.213 40C88.0487 40 86.3554 39.415 85.4235 38.2159Z" fill="#111111"></path><path d="M101.706 19.2828H106.456L110.464 39.7563H106.516L105.805 35.2326H102.478L101.676 39.727H97.6685L101.706 19.2828ZM105.364 32.6588L104.101 24.4304L102.849 32.6588H105.364Z" fill="#111111"></path><path d="M113.541 22.3636H110.294V19.2828H121.035V22.3636H117.829V39.727H113.53L113.541 22.3636Z" fill="#111111"></path><path d="M129.463 19.2828H137.609V21.4081H132.399V28.1644H136.627V30.1825H132.399V37.6797H137.659V39.727H129.463V19.2828Z" fill="#444444"></path><path d="M140.025 19.2828H142.029L148.041 32.8635V19.2828H150.485V39.7563H148.612L142.6 25.7953V39.727H140.115L140.025 19.2828Z" fill="#444444"></path><path d="M153.722 19.2828H161.859V21.4081H156.648V28.1644H160.917V30.1825H156.688V37.6797H161.919V39.727H153.722V19.2828Z" fill="#444444"></path><path d="M164.274 19.2828H168.502C170.169 19.1523 171.828 19.6052 173.182 20.5599C174.184 21.4081 174.675 22.7925 174.675 24.7131C174.675 27.3129 173.81 28.9021 172.079 29.4805L175.085 39.727H172.24L169.484 30.1337H167.21V39.727H164.274V19.2828ZM168.282 28.0571C169.247 28.148 170.212 27.8836 170.987 27.3162C171.302 26.9536 171.537 26.5322 171.679 26.0778C171.82 25.6234 171.864 25.1458 171.809 24.6741C171.829 24.0127 171.731 23.3529 171.518 22.7243C171.432 22.4925 171.299 22.2799 171.127 22.099C170.955 21.9182 170.747 21.7727 170.516 21.6714C169.866 21.4117 169.164 21.2952 168.462 21.3301H167.17V28.0961L168.282 28.0571Z" fill="#444444"></path><path d="M178.623 38.2159C177.665 36.643 177.221 34.8239 177.35 33V26.1755C177.316 24.8585 177.485 23.544 177.851 22.2758C178.141 21.3224 178.756 20.4935 179.595 19.9262C180.608 19.3323 181.781 19.047 182.962 19.1073C183.726 19.0366 184.496 19.1291 185.22 19.3783C185.943 19.6275 186.602 20.0275 187.15 20.5502C188.111 21.8605 188.566 23.4594 188.432 25.0641V25.8245H185.677V25.1908C185.696 24.4329 185.635 23.6751 185.497 22.929C185.405 22.4509 185.134 22.0232 184.735 21.7298C184.215 21.4312 183.614 21.2919 183.012 21.3301C182.357 21.2756 181.707 21.4715 181.198 21.8761C180.783 22.2597 180.511 22.7677 180.427 23.319C180.3 24.1221 180.243 24.9341 180.256 25.7466V33.3412C180.177 34.4953 180.379 35.6513 180.847 36.7145C181.119 37.0415 181.464 37.3036 181.856 37.4809C182.248 37.6582 182.677 37.746 183.109 37.7375C183.541 37.7291 183.966 37.6246 184.35 37.4321C184.734 37.2396 185.068 36.9641 185.326 36.6267C185.809 35.5023 186.018 34.2844 185.938 33.0683V31.6254H183.272V29.6073H188.583V39.727H186.769L186.479 37.3774C186.249 38.158 185.755 38.8401 185.076 39.3127C184.398 39.7853 183.575 40.0207 182.741 39.9805C181.958 40.0477 181.169 39.9212 180.449 39.6127C179.729 39.3042 179.101 38.8237 178.623 38.2159Z" fill="#444444"></path><path d="M194.675 32.5126L190.136 19.2828H192.862L196.078 29.1491L199.245 19.2828H202L197.491 32.5126V39.727H194.685L194.675 32.5126Z" fill="#444444"></path></g><defs><clipPath id="page-header_logo-desktop_0"><rect width="202" height="59" fill="white"></rect></clipPath></defs></svg><svg viewBox="0 0 190 38" fill="none" id="page-header_logo-mobile"><g clip-path="url(#page-header_logo-mobile_0)"><path d="M6.0117 20.9349V18.6514C12.6311 17.7242 19.3065 17.2752 25.988 17.3076C25.988 17.9139 25.988 18.5302 25.9286 19.1465C27.8277 18.2867 29.8236 17.6691 31.8709 17.3076C30.5661 13.8643 28.1884 10.9536 25.1037 9.02347C22.0189 7.09332 18.398 6.25055 14.7979 6.62482C11.1978 6.9991 7.81798 8.56967 5.17831 11.095C2.53863 13.6202 0.785353 16.9603 0.188175 20.6014L6.0117 20.9349Z" fill="#FDC305"></path><path d="M26.9784 24.4813C25.8295 25.7745 25.6017 25.6937 25.6017 27.967C25.6017 28.8865 25.6017 32.9178 25.6017 37.2422C27.8723 35.7125 29.7362 33.6331 31.0271 31.1895C32.3181 28.746 32.9959 26.0143 33 23.2385C32.9869 22.1869 32.8809 21.1385 32.6831 20.1064C30.6312 21.3486 28.7183 22.8156 26.9784 24.4813Z" fill="#FDC305"></path><path d="M6.29892 25.9867C6.29892 25.9867 2.54532 24.5318 1.15876 24.1377C0.779508 24.0158 0.392293 23.9212 0 23.8548C0.107354 26.7707 0.956315 29.608 2.4635 32.0879C3.97068 34.5679 6.08426 36.6053 8.59664 38L6.29892 25.9867Z" fill="#FDC305"></path><path d="M26.0375 17.2975C26.0778 11.7189 25.6136 6.1484 24.651 0.656758C24.651 0.656758 24.5123 -0.646619 23.7695 0.414269C23.1861 1.67535 22.7857 3.01637 22.581 4.39513C18.3638 4.11805 14.1305 4.23303 9.93367 4.73865C9.15126 2.02076 7.77461 0.757795 7.11104 1.01039C6.44748 1.26298 6.39796 4.35471 6.39796 4.35471L6.07113 18.6009C12.6882 17.6876 19.3603 17.252 26.0375 17.2975Z" fill="#F06351"></path><path d="M12.2908 14.1452C12.2908 14.0542 13.2812 14.8322 13.6873 15.0747C14.0933 15.3172 14.2914 15.4991 14.2914 15.6708C14.2914 15.8426 14.024 16.0144 13.6675 16.0144C13.3109 16.0144 12.7662 15.8931 12.6771 15.7416H13.608H13.8953C13.2918 15.2863 12.7521 14.7492 12.2908 14.1452Z" fill="black"></path><path d="M19.699 14.2563L18.6194 15.6001C18.6194 15.6607 18.4511 15.9537 18.7977 15.9032C19.2079 15.8408 19.6122 15.7428 20.006 15.6102C20.1149 15.6102 20.0753 15.4182 19.8971 15.4384C19.7188 15.4587 19.2137 15.489 18.9067 15.5496L19.7386 14.2765C19.7386 14.2765 19.8079 14.1452 19.699 14.2563Z" fill="black"></path><path d="M16.5891 20.4095C17.0482 20.2031 17.4277 19.848 17.6687 19.3991C17.946 18.7424 17.6687 18.4797 17.2329 18.3887C16.6366 18.2777 16.0211 18.4004 15.5096 18.7323C15.1233 19.096 15.1729 19.4597 15.4601 19.7426C15.808 20.0116 16.1872 20.2356 16.5891 20.4095Z" fill="black"></path><path d="M16.193 21.6724C16.082 21.9033 15.9271 22.1094 15.7374 22.2786C15.4553 22.5102 15.1086 22.6446 14.747 22.6626C14.2259 22.705 13.7077 22.5504 13.2911 22.2281C13.0953 22.1077 12.9183 21.9578 12.7662 21.7836C12.6667 21.6715 12.5452 21.582 12.4097 21.5209C12.4097 21.5209 13.1525 25.6634 14.955 26.3201C16.7575 26.9769 17.0744 25.5623 17.1339 25.1784C17.1934 24.0318 16.9102 22.8937 16.3217 21.9149C16.3019 21.6017 16.292 21.8038 16.193 21.6724Z" fill="#F06351"></path><path d="M14.5687 22.8242C14.1085 22.7583 13.6664 22.597 13.2695 22.3503C12.8727 22.1035 12.5295 21.7766 12.2611 21.3895C12.2479 21.3764 12.2375 21.3606 12.2303 21.3433C12.2232 21.3259 12.2195 21.3073 12.2195 21.2885C12.2195 21.2697 12.2232 21.251 12.2303 21.2337C12.2375 21.2163 12.2479 21.2006 12.2611 21.1874C12.274 21.174 12.2894 21.1633 12.3064 21.156C12.3234 21.1487 12.3417 21.145 12.3601 21.145C12.3786 21.145 12.3969 21.1487 12.4139 21.156C12.4309 21.1633 12.4463 21.174 12.4592 21.1874C12.9591 21.8889 13.71 22.3608 14.5489 22.5009C14.8774 22.4757 15.1952 22.3709 15.476 22.1952C15.7568 22.0194 15.9924 21.7779 16.1633 21.4906L16.3019 21.2986L16.401 21.5108C16.401 21.5108 16.7674 22.2786 17.3914 22.3191C18.0153 22.3595 18.4313 21.9048 18.9859 21.0258C18.9988 21.0123 19.0142 21.0017 19.0312 20.9944C19.0482 20.9871 19.0665 20.9833 19.0849 20.9833C19.1034 20.9833 19.1216 20.9871 19.1386 20.9944C19.1557 21.0017 19.1711 21.0123 19.184 21.0258C19.216 21.0466 19.2389 21.0792 19.2482 21.1168C19.2574 21.1544 19.2521 21.1941 19.2335 21.2279C18.5996 22.2382 17.9757 22.6828 17.3715 22.6424C17.1418 22.6083 16.9226 22.5215 16.7304 22.3885C16.5383 22.2555 16.3782 22.0797 16.2623 21.8745C16.0675 22.1518 15.8142 22.3811 15.5212 22.5455C15.2281 22.7098 14.9026 22.8051 14.5687 22.8242Z" fill="black"></path><path d="M25.988 19.1162C24.2097 20.7567 22.5327 22.508 20.9667 24.36C19.4104 26.2051 17.6526 27.8627 15.7275 29.3007C15.5096 28.7652 14.1231 27.7751 14.1231 27.7751C14.1231 27.7751 11.0231 25.6129 8.9928 23.9154C7.89756 22.9731 6.86216 21.9607 5.89286 20.8843L3.91207 20.7732C6.77449 25.0224 10.9639 28.1565 15.7968 29.6645C16.6486 29.523 19.0354 27.7852 20.8181 26.3706C22.9167 24.5337 24.8827 22.5448 26.7011 20.4196C27.1988 19.8245 27.5818 19.1389 27.8301 18.3988C26.7407 18.7929 25.988 19.1162 25.988 19.1162Z" fill="#F06351"></path></g><g clip-path="url(#page-header_logo-mobile_1)"><path d="M90.2645 26.5385C89.3696 25.2762 88.9253 23.7627 89 22.2308V15.8462C88.8916 14.2977 89.3081 12.7575 90.1855 11.4615C91.0548 10.4615 92.3983 10 94.374 10C96.3498 10 97.6143 10.4615 98.4045 11.3077C99.2626 12.3794 99.6846 13.7214 99.59 15.0769V16.6154H95.7175V14.8462C95.7488 14.3229 95.6681 13.799 95.4804 13.3077C95.3802 13.1094 95.2212 12.9448 95.024 12.8351C94.8269 12.7255 94.6005 12.6757 94.374 12.6923C93.8208 12.6923 93.4257 12.8462 93.2676 13.2308C93.0888 13.7773 93.0086 14.3499 93.0305 14.9231V23.1538C92.9888 23.71 93.0978 24.267 93.3466 24.7692C93.5047 25.1538 93.8999 25.3077 94.4531 25.3077C95.0063 25.3077 95.3224 25.1538 95.4804 24.7692C95.6601 24.2494 95.7405 23.7019 95.7175 23.1538V21.3077H99.59V22.8462C99.6704 24.2238 99.2508 25.5852 98.4045 26.6923C97.6143 27.6154 96.2707 28.0769 94.374 28.0769C92.4773 28 91.0548 27.5385 90.2645 26.5385Z" fill="#111111"></path><path d="M104.253 10.2308H108.757L112.077 27.7692H108.441L107.809 24.0769H105.201L104.569 27.7692H100.854L104.253 10.2308ZM107.493 21.7692L106.545 14.9231L105.596 21.7692H107.493Z" fill="#111111"></path><path d="M114.843 13.1538H112.156V10.2308H121.56V13.0769H118.873V27.7692H114.843V13.1538Z" fill="#111111"></path><path d="M128.752 10.2308H135.707V12.0769H131.202V17.8462H134.837V19.6154H131.202V26.0769H135.707V27.8462H128.673V10.2308H128.752Z" fill="#111111"></path><path d="M137.761 10.2308H139.5L144.637 21.8462V10.2308H146.692V27.7692H145.111L139.895 15.7692V27.7692H137.761V10.2308Z" fill="#111111"></path><path d="M149.063 10.2308H156.017V12.0769H151.513V17.8462H155.148V19.6154H151.513V26.0769H156.017V27.8462H149.063V10.2308Z" fill="#111111"></path><path d="M158.072 10.2308H161.707C163.137 10.1346 164.559 10.5144 165.738 11.3077C166.607 12 167.002 13.2308 167.002 14.8462C167.002 17.0769 166.291 18.4615 164.79 18.9231L167.318 27.6923H164.869L162.498 19.4615H160.522V27.6923H157.993V10.2308H158.072ZM161.549 17.7692C162.364 17.8346 163.176 17.6165 163.841 17.1538C164.315 16.7692 164.552 16 164.552 14.8462C164.574 14.273 164.494 13.7004 164.315 13.1538C164.137 12.7617 163.832 12.4373 163.446 12.2308C162.902 11.9893 162.304 11.8836 161.707 11.9231H160.601V17.6923H161.549V17.7692Z" fill="#111111"></path><path d="M170.164 26.4615C169.342 25.1166 168.956 23.5617 169.057 22V16.1538C169.038 15.0391 169.171 13.9268 169.452 12.8462C169.717 12.0386 170.244 11.3367 170.954 10.8462C171.836 10.3377 172.854 10.0967 173.878 10.1538C175.538 10.1538 176.723 10.5385 177.434 11.3846C178.252 12.5019 178.644 13.8624 178.541 15.2308V15.8462H176.17V15.3077C176.173 14.6635 176.12 14.0201 176.012 13.3846C175.945 12.983 175.718 12.6235 175.379 12.3846C174.935 12.1008 174.408 11.9658 173.878 12C173.311 11.9647 172.75 12.1284 172.297 12.4615C172.111 12.614 171.959 12.8018 171.851 13.0134C171.742 13.2251 171.679 13.4561 171.665 13.6923C171.561 14.38 171.508 15.0741 171.507 15.7692V22.3077C171.449 23.3038 171.61 24.3006 171.981 25.2308C172.297 25.8462 172.93 26.0769 173.878 26.0769C174.252 26.1223 174.632 26.0589 174.97 25.8947C175.307 25.7304 175.587 25.4727 175.775 25.1538C176.192 24.1811 176.381 23.1299 176.328 22.0769V20.8462H174.036V19.0769H178.62V27.7692H177.039L176.802 25.7692C176.595 26.4395 176.163 27.0231 175.576 27.4273C174.989 27.8315 174.28 28.0331 173.562 28C172.909 28.0374 172.256 27.9164 171.663 27.6479C171.07 27.3794 170.555 26.9717 170.164 26.4615Z" fill="#111111"></path><path d="M183.678 21.6154L179.805 10.3077H182.176L184.942 18.7692L187.629 10.3077H190L186.128 21.6154V27.7692H183.757V21.6154H183.678Z" fill="#111111"></path></g><defs><clipPath id="page-header_logo-mobile_0"><rect width="33" height="38" fill="white"></rect></clipPath><clipPath id="page-header_logo-mobile_1"><rect width="101" height="18" fill="white" transform="translate(89 10)"></rect></clipPath></defs></svg><svg viewBox="0 0 174 50" fill="none" id="page-header_logo-tablet"><g clip-path="url(#page-header_logo-tablet_0)"><path d="M51.2082 19.0509C49.734 15.4472 47.3597 12.3007 44.3221 9.92484C41.2845 7.54897 37.6896 6.02673 33.8957 5.50983C30.1017 4.99293 26.2413 5.49942 22.699 6.97882C19.1567 8.45823 16.0563 10.8589 13.7068 13.9415C11.3573 17.0242 9.84068 20.6812 9.30816 24.5481C8.77564 28.415 9.24578 32.3568 10.6717 35.9806C12.0977 39.6044 14.4296 42.7836 17.4352 45.2015C20.4408 47.6194 24.015 49.1915 27.8017 49.7611C27.3057 47.9377 26.8011 45.9223 26.3564 43.7848C27.6501 44.641 29.0118 45.3852 30.4271 46.0096C30.4271 46.0096 30.5298 47.8941 30.6666 49.9967C32.1959 50.0236 33.7237 49.8862 35.2247 49.5866C35.186 49.3674 35.186 49.1428 35.2247 48.9236C35.4727 47.2921 36.1569 44.3519 36.2937 42.4587C37.28 41.5176 38.1167 40.4256 38.7738 39.2219L38.7225 39.6058C38.2521 43.3224 37.2686 47.2921 36.67 48.3914C36.4762 48.7553 36.2377 49.0924 35.9602 49.3947C39.0558 48.6538 41.9564 47.235 44.461 45.2366C46.9656 43.2381 49.0141 40.7079 50.4647 37.8213C51.9152 34.9347 52.733 31.7607 52.8614 28.5196C52.9898 25.2784 52.4257 22.0475 51.2082 19.0509ZM49.9511 22.3575C49.5748 22.7326 48.7966 22.9856 48.6683 21.8514C48.54 20.7172 48.5058 19.9233 48.5058 19.9233C48.5058 19.9233 46.8553 16.9308 46.2396 16.8959C45.6238 16.861 41.2538 19.9233 40.0993 21.2582C39.0987 22.3836 38.9021 22.3051 38.9021 24.2856C38.9021 25.7775 39.0902 31.4135 38.9876 35.7234L32.0178 37.6166C29.8271 38.258 27.5993 38.7592 25.3473 39.1172L24.4921 34.0308H24.3724L22.1746 22.5407C22.1746 22.5407 18.9163 21.2843 17.719 20.9441C17.1569 20.6932 16.5361 20.6116 15.9299 20.709C15.3238 20.8064 14.7576 21.0787 14.2983 21.4937C13.8297 21.9123 13.4549 22.429 13.1996 23.0087C12.9443 23.5883 12.8144 24.2172 12.8188 24.8527C12.9996 25.2582 13.1372 25.6823 13.2293 26.1177C13.2721 26.5365 12.2031 26.4929 11.5189 26.4929C10.8348 26.4929 10.7322 25.2365 11.2709 23.7621C11.6912 22.6284 12.2122 21.5362 12.8274 20.4991C13.29 19.5728 13.8868 18.7228 14.5976 17.9778C14.5976 17.9778 14.7173 17.6811 15.6666 17.7684C16.6158 17.8556 21.8924 18.1435 21.8924 18.1435L21.9351 16.1631C27.6703 15.3552 33.4546 14.9645 39.2441 14.994C39.2441 15.5262 39.2441 16.0584 39.2441 16.5906C41.437 15.5696 43.7984 14.9777 46.2054 14.8457C46.3341 14.8423 46.4617 14.8717 46.5767 14.9311C46.6916 14.9905 46.7903 15.078 46.8638 15.1859C47.1546 15.5611 48.9249 17.8033 49.1301 18.1261C49.705 18.9642 50.2277 19.8384 50.6951 20.7434C50.5349 21.3165 50.2835 21.8588 49.9511 22.3487V22.3575Z" fill="#FDC305"></path><path d="M48.2839 17.0181C48.6859 17.5415 49.0365 18.0039 49.1391 18.1435C49.714 18.9817 50.2367 19.8558 50.7041 20.7609C50.5414 21.3151 50.2931 21.8393 49.9687 22.3138C49.5924 22.689 48.8142 22.942 48.6859 21.8078C48.5576 20.6736 48.5063 19.9233 48.5063 19.9233C48.5063 19.9233 46.8558 16.9308 46.24 16.8959C45.6243 16.861 41.2543 19.9233 40.0998 21.2582C39.0992 22.3836 38.9025 22.3051 38.9025 24.2856C38.9025 25.5942 39.0479 30.0874 39.0137 34.0832C40.5616 34.2577 42.8364 34.6939 43.5205 35.7234C43.5205 35.7234 43.2725 29.4592 50.1996 32.7396C50.1996 32.7396 50.439 24.1983 60 26.3882C56.7498 22.4952 52.7655 19.3086 48.2839 17.0181Z" fill="#F06351"></path><path d="M39.2788 14.994C39.3136 10.1595 38.9128 5.332 38.0815 0.572359C38.0815 0.572359 37.9533 -0.561827 37.3375 0.362971C36.8294 1.46856 36.4837 2.64443 36.3113 3.85277C32.6555 3.61347 28.986 3.71276 25.3478 4.14941C24.6465 1.75017 23.4493 0.659604 22.8763 0.947513C22.3033 1.23542 22.2349 3.80915 22.2349 3.80915L21.9527 16.1631C27.6936 15.3544 33.4836 14.9637 39.2788 14.994Z" fill="#F06351"></path><path d="M38.7821 39.2219C38.8933 38.2884 38.9531 37.0495 38.9874 35.6798L32.0179 37.573C29.8283 38.2291 27.6005 38.7449 25.3478 39.1172L26.297 43.4795C26.297 43.5755 26.297 43.6714 26.3569 43.7674C27.6505 44.6235 29.0121 45.3677 30.4273 45.9921C32.4957 44.9834 34.4656 43.777 36.3107 42.3889V42.4413C37.2925 41.5048 38.1262 40.4188 38.7821 39.2219Z" fill="#E55645"></path><path d="M27.366 12.2632C27.3233 12.176 28.2212 12.8565 28.5718 13.0659C28.9224 13.2752 29.0934 13.4323 29.0934 13.5806C29.0934 13.7289 28.8711 13.8772 28.5632 13.8772C28.2554 13.8772 27.7765 13.7725 27.7081 13.6504C27.6397 13.5282 28.2212 13.6504 28.5119 13.6504H28.7599C28.2334 13.2574 27.7642 12.7904 27.366 12.2632Z" fill="black"></path><path d="M33.7799 12.3592C33.7799 12.3592 32.9247 13.4759 32.8478 13.5283C32.7708 13.5806 32.7024 13.8249 33.0103 13.7813C33.3637 13.7274 33.7125 13.6458 34.0535 13.537C34.1476 13.4846 34.1134 13.3625 33.9509 13.3799C33.7884 13.3974 33.3694 13.4236 33.0958 13.4759L33.8227 12.3679C33.8227 12.3679 33.8483 12.2632 33.7799 12.3592Z" fill="black"></path><path d="M31.0946 17.6898C31.491 17.5117 31.8186 17.205 32.0267 16.8174C32.2661 16.2416 32.0267 16.0235 31.6504 15.9449C31.1328 15.8486 30.5986 15.9545 30.1539 16.2416C29.8204 16.5644 29.8632 16.8785 30.1539 17.114C30.4428 17.3451 30.7588 17.5386 31.0946 17.6898Z" fill="black"></path><path d="M30.7866 18.7891C30.6884 18.987 30.555 19.1645 30.3932 19.3126C30.1497 19.5125 29.8503 19.6286 29.5381 19.6441C29.0673 19.6913 28.5965 19.5541 28.2212 19.2603C28.0488 19.1574 27.8954 19.0245 27.7679 18.8677C27.6824 18.7726 27.5772 18.6981 27.4601 18.6495C27.4601 18.6495 28.1014 22.2353 29.6578 22.8111C31.2142 23.3869 31.5049 22.1481 31.5477 21.8165C31.5998 20.8236 31.3553 19.8379 30.8465 18.9898C30.8465 18.7281 30.8294 18.9026 30.7866 18.7891Z" fill="#F06351"></path><path d="M29.3328 19.7837C28.9326 19.725 28.5483 19.5842 28.2029 19.3698C27.8575 19.1554 27.5583 18.8718 27.3233 18.5361C27.3022 18.5121 27.2906 18.4811 27.2906 18.4489C27.2906 18.4167 27.3022 18.3856 27.3233 18.3616C27.3344 18.35 27.3477 18.3408 27.3624 18.3345C27.3771 18.3282 27.3928 18.325 27.4088 18.325C27.4247 18.325 27.4405 18.3282 27.4551 18.3345C27.4698 18.3408 27.4831 18.35 27.4943 18.3616C27.7059 18.6645 27.9744 18.9215 28.2841 19.1177C28.5939 19.3139 28.9387 19.4454 29.2986 19.5045C29.5834 19.4827 29.859 19.3922 30.1028 19.2406C30.3466 19.0889 30.5517 18.8804 30.7011 18.6321L30.8208 18.4663L30.9063 18.6583C30.9063 18.6583 31.2313 19.3213 31.7615 19.3562C32.2916 19.3911 32.6679 18.9898 33.1553 18.2308C33.1735 18.203 33.2017 18.1837 33.2338 18.1772C33.2659 18.1706 33.2992 18.1774 33.3264 18.1959C33.3536 18.2144 33.3725 18.2432 33.3789 18.2759C33.3853 18.3086 33.3787 18.3426 33.3606 18.3704C32.7905 19.2254 32.2517 19.6354 31.7444 19.6005C31.5482 19.574 31.3604 19.503 31.1947 19.3928C31.029 19.2826 30.8895 19.136 30.7866 18.9636C30.6193 19.202 30.402 19.3993 30.1505 19.5412C29.899 19.683 29.6197 19.7659 29.3328 19.7837Z" fill="black"></path><path d="M31.009 31.5269C32.78 31.5269 34.2158 30.0621 34.2158 28.2552C34.2158 26.4483 32.78 24.9835 31.009 24.9835C29.2379 24.9835 27.8022 26.4483 27.8022 28.2552C27.8022 30.0621 29.2379 31.5269 31.009 31.5269Z" fill="#FDC305"></path><path d="M35.259 25.5942L32.5824 26.7372L33.5658 21.8253L27.1522 30.3404L29.8288 29.1975L28.8454 34.1181L35.259 25.5942ZM28.9395 28.9357L32.4969 24.2158L31.8042 27.7056L33.5145 26.9902L29.9314 31.7188L30.6241 28.229L28.9395 28.9357Z" fill="#111111"></path><path d="M27.7422 27.6532C28.2712 27.6532 28.7 27.2157 28.7 26.6761C28.7 26.1364 28.2712 25.6989 27.7422 25.6989C27.2133 25.6989 26.7845 26.1364 26.7845 26.6761C26.7845 27.2157 27.2133 27.6532 27.7422 27.6532Z" fill="#111111"></path><path d="M33.3181 31.1954C33.6912 31.1954 33.9937 30.8868 33.9937 30.5061C33.9937 30.1255 33.6912 29.8169 33.3181 29.8169C32.945 29.8169 32.6425 30.1255 32.6425 30.5061C32.6425 30.8868 32.945 31.1954 33.3181 31.1954Z" fill="#111111"></path><path d="M34.1391 29.3022C34.3044 29.3022 34.4384 29.1654 34.4384 28.9968C34.4384 28.8282 34.3044 28.6914 34.1391 28.6914C33.9738 28.6914 33.8398 28.8282 33.8398 28.9968C33.8398 29.1654 33.9738 29.3022 34.1391 29.3022Z" fill="#111111"></path><path d="M39.236 16.5731C37.6923 17.9928 36.2384 19.511 34.8831 21.1186C33.5331 22.7145 32.0097 24.1487 30.3421 25.3936C30.1539 24.9312 28.9481 24.0675 28.9481 24.0675C28.9481 24.0675 26.2628 22.1917 24.5011 20.7172C23.5488 19.908 22.6516 19.0336 21.8158 18.0999L20.1055 18.0039C22.5744 21.6832 26.1915 24.4015 30.3677 25.7164C31.1032 25.5942 33.1727 24.0849 34.7206 22.8548C36.5519 21.2659 38.2669 19.5426 39.8518 17.6986C40.2778 17.1821 40.6081 16.5908 40.8267 15.9537C39.8518 16.2852 39.236 16.5731 39.236 16.5731Z" fill="#F06351"></path><path d="M22.175 22.5407C22.175 22.5407 18.9168 21.2843 17.7195 20.9441C17.1573 20.6932 16.5365 20.6116 15.9304 20.709C15.3243 20.8064 14.7581 21.0787 14.2987 21.4937C13.8301 21.9123 13.4554 22.429 13.2001 23.0087C12.9448 23.5883 12.8149 24.2172 12.8193 24.8527C13 25.2582 13.1377 25.6823 13.2298 26.1177C13.2725 26.5365 12.2035 26.4929 11.5194 26.4929C10.8352 26.4929 10.7326 25.2365 11.2714 23.7621C11.6917 22.6284 12.2127 21.5362 12.8278 20.4991C8.16705 22.9769 0 28.7002 0 28.7002C2.33611 28.5564 4.68014 28.6265 7.00399 28.9096C11.4937 29.372 11.2799 32.9839 11.2799 32.9839C12.8591 32.5398 14.4684 32.2161 16.0946 32.0155C17.9076 31.8933 18.0359 33.8651 18.0359 33.8651L18.4892 37.2327C19.1774 36.4731 19.9364 35.7835 20.7554 35.1738C21.8111 34.3116 23.1553 33.9046 24.5011 34.0396L22.175 22.5407Z" fill="#F06351"></path><path d="M74.2184 32.4708C73.3349 31.1952 72.9125 29.6692 73.0177 28.1337V21.8663C72.9063 20.3195 73.3223 18.7802 74.2013 17.4875C74.996 16.4903 76.3539 15.9945 78.275 16C80.1961 16.0056 81.4969 16.4429 82.1773 17.312C83.0069 18.389 83.4117 19.7206 83.3179 21.0641V22.5348H79.7673V20.9388C79.7625 20.5188 79.7253 20.0998 79.6558 19.6853C79.6129 19.3852 79.4715 19.1067 79.2527 18.8914C79.1177 18.7786 78.9609 18.6931 78.7916 18.64C78.6222 18.5869 78.4437 18.5673 78.2664 18.5822C78.0119 18.5452 77.7518 18.5855 77.5217 18.6977C77.2915 18.8098 77.1023 18.9883 76.98 19.209C76.7545 19.7958 76.6552 20.4216 76.6884 21.0474V29.0028C76.6493 29.6327 76.7639 30.2628 77.0229 30.8412C77.1466 31.0499 77.3302 31.2188 77.5512 31.3272C77.7721 31.4356 78.0207 31.4787 78.2664 31.4513C78.5079 31.4845 78.754 31.4427 78.9696 31.3316C79.1852 31.2206 79.3593 31.046 79.4671 30.8329C79.6746 30.2449 79.7648 29.6238 79.733 29.0028V27.3315H83.2836V28.7772C83.3881 30.1405 83.0164 31.4982 82.2287 32.6295C81.474 33.5487 80.1704 34 78.3179 34C76.4654 34 75.016 33.4986 74.2184 32.4708Z" fill="#111111"></path><path d="M88.1555 16.2424H92.2207L95.6513 33.7911H92.2722L91.6633 29.9137H88.8159L88.1298 33.766H84.6993L88.1555 16.2424ZM91.2859 27.7075L90.2053 20.6546L89.1332 27.7075H91.2859Z" fill="#111111"></path><path d="M98.2848 18.883H95.506V16.2424H104.7V18.883H101.955V33.766H98.2762L98.2848 18.883Z" fill="#111111"></path><path d="M111.913 16.2424H118.886V18.0641H114.426V23.8552H118.045V25.585H114.426V32.0111H118.929V33.766H111.913V16.2424Z" fill="#444444"></path><path d="M120.953 16.2424H122.669L127.814 27.883V16.2424H129.907V33.7911H128.303L123.157 21.8245V33.766H121.03L120.953 16.2424Z" fill="#444444"></path><path d="M132.678 16.2424H139.642V18.0641H135.182V23.8552H138.836V25.585H135.216V32.0111H139.693V33.766H132.678V16.2424Z" fill="#444444"></path><path d="M141.709 16.2424H145.328C146.754 16.1306 148.175 16.5188 149.333 17.3371C150.191 18.0641 150.611 19.2507 150.611 20.897C150.611 23.1254 149.871 24.4875 148.39 24.9833L150.963 33.766H148.527L146.169 25.5432H144.222V33.766H141.709V16.2424ZM145.14 23.7633C145.966 23.8411 146.792 23.6146 147.455 23.1282C147.725 22.8174 147.926 22.4561 148.047 22.0667C148.168 21.6772 148.206 21.2678 148.158 20.8635C148.176 20.2966 148.091 19.7311 147.91 19.1922C147.836 18.9936 147.722 18.8113 147.575 18.6563C147.427 18.5013 147.25 18.3766 147.052 18.2897C146.495 18.0672 145.895 17.9673 145.294 17.9973H144.188V23.7967L145.14 23.7633Z" fill="#444444"></path><path d="M153.991 32.4708C153.171 31.1225 152.791 29.5634 152.902 28V22.1504C152.872 21.0216 153.017 19.8949 153.33 18.8078C153.578 17.9906 154.105 17.2802 154.823 16.7939C155.69 16.2848 156.693 16.0403 157.704 16.092C158.358 16.0314 159.018 16.1107 159.637 16.3243C160.256 16.5379 160.82 16.8807 161.289 17.3287C162.112 18.4519 162.501 19.8223 162.387 21.1978V21.8496H160.029V21.3064C160.045 20.6568 159.993 20.0072 159.874 19.3677C159.796 18.9579 159.564 18.5913 159.222 18.3399C158.777 18.0839 158.263 17.9645 157.747 17.9973C157.187 17.9506 156.63 18.1184 156.195 18.4652C155.839 18.7941 155.607 19.2294 155.535 19.702C155.426 20.3903 155.377 21.0864 155.389 21.7828V28.2925C155.321 29.2817 155.494 30.2725 155.895 31.1839C156.128 31.4641 156.423 31.6888 156.758 31.8408C157.094 31.9928 157.461 32.068 157.831 32.0608C158.2 32.0535 158.564 31.9639 158.893 31.7989C159.222 31.6339 159.507 31.3978 159.728 31.1086C160.142 30.1448 160.321 29.1009 160.252 28.0585V26.8217H157.97V25.0919H162.516V33.766H160.963L160.715 31.7521C160.518 32.4212 160.095 33.0058 159.514 33.4109C158.933 33.816 158.229 34.0177 157.516 33.9833C156.845 34.0409 156.17 33.9325 155.554 33.668C154.938 33.4036 154.4 32.9918 153.991 32.4708Z" fill="#444444"></path><path d="M167.731 27.5822L163.846 16.2424H166.178L168.931 24.6992L171.642 16.2424H174L170.141 27.5822V33.766H167.739L167.731 27.5822Z" fill="#444444"></path></g><defs><clipPath id="page-header_logo-tablet_0"><rect width="174" height="50" fill="white"></rect></clipPath></defs></svg><svg viewBox="0 0 25 30" fill="none" id="process_eat"><path fill-rule="evenodd" clip-rule="evenodd" d="M18.6173 0.0761497C18.991 -0.0786313 19.4211 0.00692445 19.7071 0.292922C20.6156 1.20142 21.8038 3.17065 22.7659 6.21082C23.7373 9.28039 24.5 13.5081 24.5 19C24.5 19.5523 24.0523 20 23.5 20H20V29C20 29.5523 19.5523 30 19 30C18.4477 30 18 29.5523 18 29V1.00003C18 0.595567 18.2436 0.230931 18.6173 0.0761497ZM20 18H22.4912C22.4053 13.1836 21.7051 9.48755 20.8591 6.81424C20.5807 5.93457 20.2885 5.1715 20 4.51895V18Z" fill="white"></path><path fill-rule="evenodd" clip-rule="evenodd" d="M6 0C6.55228 0 7 0.447715 7 1V29C7 29.5523 6.55228 30 6 30C5.44772 30 5 29.5523 5 29V1C5 0.447715 5.44772 0 6 0Z" fill="white"></path><path fill-rule="evenodd" clip-rule="evenodd" d="M1.5 0C2.05228 0 2.5 0.447715 2.5 1V6.5C2.5 7.05686 2.69203 7.81518 3.20088 8.41656C3.68001 8.98281 4.51446 9.5 5.99993 9.5C6.55221 9.5 6.99993 9.94771 6.99993 10.5C6.99993 11.0523 6.55221 11.5 5.99993 11.5C3.98547 11.5 2.56995 10.7672 1.6741 9.70844C0.807973 8.68482 0.5 7.44314 0.5 6.5V1C0.5 0.447715 0.947715 0 1.5 0Z" fill="white"></path><path fill-rule="evenodd" clip-rule="evenodd" d="M10.5 0C9.94771 0 9.5 0.447715 9.5 1V6.5C9.5 7.05686 9.30797 7.81518 8.79912 8.41656C8.31999 8.98281 7.4854 9.5 5.99993 9.5C5.44765 9.5 5.00007 9.94771 5.00007 10.5C5.00007 11.0523 5.44765 11.5 5.99993 11.5C8.01439 11.5 9.43005 10.7672 10.3259 9.70844C11.192 8.68482 11.5 7.44314 11.5 6.5V1C11.5 0.447715 11.0523 0 10.5 0Z" fill="white"></path></svg><svg viewBox="0 0 25 28" fill="none" id="process_leaf"><path d="M24.7754 0.767C24.6751 0.317 24.2963 0 23.8641 0C23.8623 0 23.8604 0 23.8585 0C18.9207 0.033 6.91319 0.916 2.06538 8.38C-0.452747 12.258 -0.669309 17.293 1.42132 23.345C1.43725 23.392 1.47007 23.424 1.49163 23.467C0.744441 25.44 0.454754 26.753 0.447254 26.79C0.338504 27.33 0.661941 27.862 1.16819 27.978C1.23382 27.993 1.29944 28 1.36507 28C1.79725 28 2.18632 27.679 2.281 27.21C2.30069 27.108 4.68944 16.837 13.1344 10.832C13.5657 10.526 13.6819 9.905 13.3941 9.445C13.1063 8.985 12.5251 8.86 12.0938 9.168C7.30507 12.573 4.35569 17.176 2.62132 20.824C1.38007 16.246 1.70538 12.447 3.60757 9.519C7.351 3.755 16.2301 2.365 21.5898 2.071C20.4366 3.872 19.1766 7.174 19.1766 13C19.1766 16.12 18.3469 18.522 16.7119 20.14C14.0907 22.731 9.83257 22.974 6.71819 22.724C6.20069 22.679 5.75163 23.095 5.71225 23.646C5.67288 24.196 6.06007 24.676 6.57569 24.718C7.19913 24.769 7.86475 24.8 8.55663 24.8C11.7273 24.8 15.4257 24.137 17.986 21.606C20.0204 19.595 21.0516 16.7 21.0516 13.001C21.0516 3.902 24.2673 1.905 24.2832 1.896C24.6732 1.687 24.8776 1.219 24.7754 0.767Z" fill="white"></path></svg><svg viewBox="0 0 26 29" fill="none" id="process_powder"><path d="M10.8609 0C9.23173 0 7.96463 1.36758 7.96463 3.09985C7.96463 4.83212 9.23173 6.1997 10.8609 6.1997C12.49 6.1997 13.7571 4.83212 13.7571 3.09985C13.7571 1.36758 12.49 0 10.8609 0ZM10.8609 1.18524C11.8564 1.18524 12.5805 2.03314 12.5805 3.09985C12.5805 4.10275 11.7931 5.01447 10.8609 5.01447C9.86528 5.01447 9.14122 4.16657 9.14122 3.09985C9.14122 2.09696 9.91958 1.18524 10.8609 1.18524ZM0 24.89C0 26.0752 0.407282 27.0781 1.35761 27.8987C2.35319 28.7557 3.52978 28.6827 3.52978 28.6827H22.5363C23.3146 28.6827 24.3464 28.2998 25.161 27.224C26.0027 26.2211 25.9484 24.8535 25.9484 24.8535V7.53082C25.9484 7.09319 25.8398 6.92908 25.2062 6.92908C24.5727 6.92908 24.5184 7.2026 24.5184 7.5217V24.8444C24.5003 25.1453 24.446 25.9385 23.7762 26.5767C23.0431 27.2058 22.3281 27.1237 22.3281 27.1237C22.3281 27.1237 4.22668 27.1237 3.32161 27.0964C2.97769 27.0325 2.41654 26.9049 1.8735 26.1846C1.36666 25.4553 1.46622 24.5435 1.46622 24.5435V7.22083C1.46622 6.75585 1.2309 6.58263 0.742159 6.58263C0.25342 6.58263 0 6.75585 0 7.16613V24.89ZM16.2913 8.47901C15.2052 8.71605 14.1191 8.86193 12.0375 10.8495C9.95579 12.8553 8.41717 12.7641 6.87854 12.6729C5.33992 12.5818 3.71079 11.123 3.43927 10.7583C3.1044 10.4027 2.5342 10.6398 2.35319 10.8768C2.19932 11.1139 2.19932 11.5242 2.46179 11.8797C3.72889 13.065 4.90549 13.9767 7.16817 14.159C9.43085 14.3778 11.603 13.3476 13.0511 11.8797C14.4992 10.421 15.2233 10.1475 16.3094 9.96511C18.9341 9.54572 20.4727 10.5851 21.3778 11.2415C22.3734 12.3356 22.6449 12.0256 22.9164 11.7156C23.4595 10.9954 22.6901 10.4392 21.8303 9.801C20.0202 8.61576 18.3005 8.1599 16.3094 8.52459L16.2913 8.47901ZM7.24057 15.6816C6.06398 15.6816 5.15891 16.6845 5.15891 17.9609C5.15891 19.2373 6.06398 20.2402 7.24057 20.2402C8.41716 20.2402 9.32224 19.2373 9.32224 17.9609C9.32224 16.6845 8.41716 15.6816 7.24057 15.6816ZM19.0065 16.4657C17.4679 16.4657 16.2008 17.8333 16.2008 19.4744C16.2008 21.1155 17.4679 22.483 19.0065 22.483C20.5451 22.483 21.8122 21.1155 21.8122 19.4744C21.8122 17.8333 20.5451 16.4657 19.0065 16.4657ZM19.0065 17.9244C19.803 17.9244 20.4546 18.6265 20.4546 19.4744C20.4546 20.3405 19.803 21.0243 19.0065 21.0243C18.21 21.0243 17.5584 20.3223 17.5584 19.4744C17.5584 18.6082 18.21 17.9244 19.0065 17.9244Z" fill="white"></path></svg><svg viewBox="0 0 26 32" fill="none" id="process_timer"><path d="M5.53079 0C4.46922 0 4.46922 1.59266 5.53079 1.59266H12.1656V3.20655C5.37156 3.64188 0 9.47101 0 16.5849C0 20.6196 1.74098 24.2615 4.49045 26.7142C4.96816 27.1389 5.03185 27.8927 4.59661 28.3599L3.06794 29.9207C2.32484 30.6109 3.42888 31.6833 4.09767 30.9294L6.09343 28.8802C6.44375 28.5404 6.96392 28.4555 7.39916 28.6678C9.11549 29.5168 11.0026 29.9638 12.9173 29.9748C14.832 29.9859 16.7241 29.5607 18.4501 28.7315C18.8748 28.5192 19.4055 28.6041 19.7453 28.9439L21.6773 30.9294C22.3567 31.5665 23.3334 30.6109 22.7177 29.9207L21.2739 28.4343C20.8281 27.9777 20.8918 27.2238 21.3801 26.7885C22.8287 25.5116 23.9874 23.9396 24.7784 22.1778C25.5693 20.4161 25.9743 18.5055 25.9661 16.5743C25.9661 9.46039 20.5627 3.62064 13.758 3.20655V1.59266H20.3928C21.4544 1.59266 21.4544 0 20.3928 0H5.53079ZM1.43312 16.5743C1.43312 10.0019 6.60298 4.68241 12.983 4.68241C19.3525 4.68241 24.5223 10.0019 24.5223 16.5743C24.5223 23.1572 19.3525 28.4873 12.983 28.4873C6.6136 28.4873 1.43312 23.1572 1.43312 16.5743ZM12.1762 8.43047C12.1762 7.32623 13.8323 7.32623 13.8323 8.43047V17.1158C13.8323 17.341 13.7428 17.5571 13.5836 17.7164C13.4243 17.8757 13.2083 17.9652 12.983 17.9652C12.7709 17.9652 12.5673 17.8816 12.4163 17.7326C12.2653 17.5836 12.179 17.381 12.1762 17.1689V8.43047ZM7.20808 11.0637C7.51496 11.0637 7.80928 10.9417 8.02628 10.7247C8.24328 10.5076 8.36519 10.2133 8.36519 9.90633C8.36519 9.59939 8.24328 9.30502 8.02628 9.08797C7.80928 8.87093 7.51496 8.749 7.20808 8.749C6.92168 8.77653 6.65581 8.9098 6.46233 9.1228C6.26886 9.3358 6.16167 9.61325 6.16167 9.90102C6.16167 10.1888 6.26886 10.4662 6.46233 10.6792C6.65581 10.8922 6.92168 11.0255 7.20808 11.053V11.0637ZM18.7474 11.0637C19.0543 11.0637 19.3486 10.9417 19.5656 10.7247C19.7826 10.5076 19.9045 10.2133 19.9045 9.90633C19.9045 9.59939 19.7826 9.30502 19.5656 9.08797C19.3486 8.87093 19.0543 8.749 18.7474 8.749C18.461 8.77653 18.1951 8.9098 18.0016 9.1228C17.8082 9.3358 17.701 9.61325 17.701 9.90102C17.701 10.1888 17.8082 10.4662 18.0016 10.6792C18.1951 10.8922 18.461 11.0255 18.7474 11.053V11.0637ZM8.36519 23.7306C8.36519 25.2702 6.05096 25.2702 6.05096 23.7306C6.05096 22.191 8.36519 22.191 8.36519 23.7306ZM12.983 27.192C13.1436 27.2074 13.3056 27.1891 13.4586 27.1382C13.6117 27.0874 13.7524 27.005 13.8718 26.8966C13.9912 26.7881 14.0866 26.6558 14.1519 26.5083C14.2171 26.3608 14.2509 26.2013 14.2509 26.04C14.2509 25.8786 14.2171 25.7191 14.1519 25.5716C14.0866 25.4241 13.9912 25.2918 13.8718 25.1833C13.7524 25.0749 13.6117 24.9926 13.4586 24.9417C13.3056 24.8908 13.1436 24.8725 12.983 24.8879C12.6966 24.9155 12.4308 25.0487 12.2373 25.2617C12.0438 25.4747 11.9366 25.7522 11.9366 26.04C11.9366 26.3277 12.0438 26.6052 12.2373 26.8182C12.4308 27.0312 12.6966 27.1644 12.983 27.192ZM4.90447 16.7441C4.9199 16.9047 4.90159 17.0668 4.85073 17.2198C4.79986 17.3729 4.71756 17.5137 4.60911 17.6331C4.50065 17.7525 4.36844 17.8479 4.22095 17.9132C4.07346 17.9785 3.91395 18.0122 3.75266 18.0122C3.59137 18.0122 3.43186 17.9785 3.28437 17.9132C3.13688 17.8479 3.00467 17.7525 2.89621 17.6331C2.78775 17.5137 2.70545 17.3729 2.65459 17.2198C2.60373 17.0668 2.58542 16.9047 2.60085 16.7441C2.62838 16.4577 2.76162 16.1918 2.97458 15.9983C3.18754 15.8047 3.46494 15.6975 3.75266 15.6975C4.04038 15.6975 4.31778 15.8047 4.53074 15.9983C4.7437 16.1918 4.87694 16.4577 4.90447 16.7441ZM22.2081 17.9015C22.3686 17.9169 22.5307 17.8986 22.6837 17.8477C22.8368 17.7969 22.9775 17.7145 23.0969 17.6061C23.2163 17.4976 23.3116 17.3653 23.3769 17.2178C23.4422 17.0703 23.4759 16.9108 23.4759 16.7495C23.4759 16.5881 23.4422 16.4286 23.3769 16.2811C23.3116 16.1336 23.2163 16.0013 23.0969 15.8928C22.9775 15.7844 22.8368 15.702 22.6837 15.6512C22.5307 15.6003 22.3686 15.582 22.2081 15.5974C21.9217 15.625 21.6558 15.7582 21.4624 15.9712C21.2689 16.1842 21.1617 16.4617 21.1617 16.7495C21.1617 17.0372 21.2689 17.3147 21.4624 17.5277C21.6558 17.7407 21.9217 17.8739 22.2081 17.9015ZM19.9045 23.7412C19.9045 25.2702 17.5903 25.2702 17.5903 23.7306C17.5903 22.191 19.9045 22.191 19.9045 23.7306V23.7412Z" fill="white"></path></svg><svg viewBox="0 0 27 34" fill="none" id="page-footer_htmlacademy-logo"><path d="M13.6426 0.0157537L13.5 0L0 1.40733V26.0129L13.5 34L27 26.0129V1.40733L13.6426 0.0157537ZM25.2344 25.0151L13.5 31.9573L1.76561 25.0151V14.9293L13.4507 21.8451L13.4701 23.0984L5.45351 18.3548L5.44295 19.5801L13.4894 24.3885L13.5088 25.675L5.46408 20.9174L5.45351 22.1427L13.5 26.9511L21.6239 22.1182V20.8929V16.909L25.2432 14.7595L25.2344 25.0151ZM25.2344 13.4519L22.0147 15.3319L20.5325 16.2071L13.4666 12.0201L13.456 13.2454L19.4957 16.818L19.4429 16.8495L19.3126 16.9247L18.4536 17.4166L13.4666 14.4689L13.456 15.6942L17.3921 18.0222L16.4591 18.6314L16.438 18.6436L13.4666 16.902L13.456 18.1273L15.4029 19.2615L13.4155 20.4483L1.7973 13.5762L13.4349 6.61831L25.2344 13.4519ZM25.2344 12.2266L13.4401 5.31075L1.76561 12.2196V2.9897L13.5 1.76442L25.2344 2.9897V12.2266Z" fill="currentColor"></path></svg><svg viewBox="0 0 128 25" fill="none" id="page-footer_logo"><g clip-path="url(#page-footer_logo_0)"><path d="M1.6236 22.4574C0.489608 20.7815 -0.0733133 18.7722 0.0213584 16.7383V8.2617C-0.115966 6.20593 0.411707 4.16097 1.52346 2.44043C2.62499 1.11277 4.32737 0.5 6.83086 0.5C9.33436 0.5 10.9366 1.11277 11.938 2.23617C13.0252 3.65904 13.56 5.4407 13.4401 7.24043V9.28298H8.53324V6.93404C8.57287 6.23932 8.47057 5.54378 8.23282 4.89149C8.10574 4.62819 7.90433 4.40969 7.65449 4.26409C7.40465 4.11849 7.11781 4.05245 6.83086 4.07447C6.12989 4.07447 5.62919 4.27872 5.42891 4.78936C5.20237 5.515 5.10073 6.27516 5.12849 7.03617V17.9638C5.0756 18.7022 5.21373 19.4417 5.52905 20.1085C5.72933 20.6192 6.23003 20.8234 6.931 20.8234C7.63198 20.8234 8.03254 20.6192 8.23282 20.1085C8.4605 19.4183 8.56232 18.6914 8.53324 17.9638V15.5128H13.4401V17.5553C13.5419 19.3844 13.0103 21.1918 11.938 22.6617C10.9366 23.8872 9.23422 24.5 6.83086 24.5C4.42751 24.3979 2.62499 23.7851 1.6236 22.4574Z" fill="currentColor"></path><path d="M19.3484 0.806396H25.0563L29.2622 24.0915H24.6558L23.8547 19.1894H20.55L19.7489 24.0915H15.0424L19.3484 0.806396ZM23.4541 16.1255L22.2524 7.03618L21.0507 16.1255H23.4541Z" fill="currentColor"></path><path d="M32.7671 4.68725H29.3623V0.806396H41.2789V4.58512H37.8742V24.0915H32.7671V4.68725Z" fill="currentColor"></path><path d="M50.3916 0.806396H59.2039V3.25746H53.496V10.917H58.1024V13.266H53.496V21.8447H59.2039V24.1936H50.2915V0.806396H50.3916Z" fill="currentColor"></path><path d="M61.8076 0.806396H64.0107L70.5198 16.2277V0.806396H73.1234V24.0915H71.1206L64.5114 8.15959V24.0915H61.8076V0.806396Z" fill="currentColor"></path><path d="M76.1276 0.806396H84.9399V3.25746H79.2319V10.917H83.8383V13.266H79.2319V21.8447H84.9399V24.1936H76.1276V0.806396Z" fill="currentColor"></path><path d="M87.5435 0.806296H92.1499C93.962 0.678639 95.7628 1.1828 97.2571 2.23608C98.3586 3.15523 98.8593 4.78927 98.8593 6.93396C98.8593 9.89566 97.958 11.734 96.0554 12.3467L99.2598 23.9893H96.1555L93.1513 13.0616H90.6478V23.9893H87.4434V0.806296H87.5435ZM91.9496 10.8148C92.982 10.9016 94.011 10.6121 94.8537 9.99778C95.4545 9.48715 95.755 8.46587 95.755 6.93396C95.7827 6.17295 95.6811 5.41279 95.4545 4.68715C95.2291 4.16645 94.8421 3.73582 94.353 3.46162C93.6633 3.14108 92.9061 3.00069 92.1499 3.0531H90.748V10.7127H91.9496V10.8148Z" fill="currentColor"></path><path d="M102.865 22.3554C101.824 20.5697 101.335 18.5053 101.463 16.432V8.67025C101.438 7.19026 101.607 5.71349 101.964 4.27876C102.299 3.20664 102.967 2.27469 103.866 1.62344C104.984 0.948453 106.274 0.628462 107.572 0.704291C109.674 0.704291 111.177 1.21493 112.078 2.33833C113.115 3.82172 113.61 5.62795 113.48 7.44472V8.26174H110.476V7.54684C110.48 6.69152 110.413 5.83736 110.275 4.99365C110.191 4.46049 109.903 3.98313 109.474 3.66599C108.911 3.28921 108.243 3.10993 107.572 3.15535C106.854 3.10843 106.143 3.32587 105.569 3.76812C105.333 3.97055 105.141 4.21989 105.003 4.50086C104.865 4.78184 104.785 5.08853 104.768 5.40216C104.636 6.31517 104.569 7.23673 104.567 8.15961V16.8405C104.494 18.163 104.698 19.4863 105.168 20.7213C105.569 21.5383 106.37 21.8447 107.572 21.8447C108.046 21.905 108.527 21.8208 108.955 21.6028C109.383 21.3847 109.738 21.0425 109.975 20.6192C110.504 19.3277 110.743 17.932 110.676 16.5341V14.9H107.772V12.5511H113.58V24.0915H111.577L111.277 21.4362C111.014 22.3261 110.468 23.101 109.724 23.6376C108.98 24.1742 108.081 24.4419 107.171 24.3979C106.344 24.4475 105.517 24.2869 104.765 23.9304C104.014 23.5739 103.361 23.0327 102.865 22.3554Z" fill="currentColor"></path><path d="M119.989 15.9212L115.082 0.908447H118.086L121.591 12.1425L124.996 0.908447H128L123.093 15.9212V24.0914H120.089V15.9212H119.989Z" fill="currentColor"></path></g><defs><clipPath id="page-footer_logo_0"><rect width="128" height="24" fill="white" transform="translate(0 0.5)"></rect></clipPath></defs></svg><svg viewBox="0 0 20 18" fill="none" id="page-footer_telegram"><path fill-rule="evenodd" clip-rule="evenodd" d="M19.4608 0.152905C19.6393 0.302216 19.7255 0.534898 19.6872 0.764481L17.0611 16.5214C17.0244 16.7411 16.8789 16.9273 16.6745 17.0159C16.47 17.1045 16.2346 17.0833 16.0493 16.9597L8.17082 11.7074C8.01771 11.6054 7.91447 11.4437 7.88624 11.2619C7.858 11.08 7.90738 10.8947 8.02233 10.751L10.633 7.48773L6.27303 10.3944C6.077 10.525 5.82597 10.5407 5.61524 10.4353L0.362931 7.80915C0.127693 7.69153 -0.0146529 7.44488 0.00119976 7.18235C0.0170525 6.91983 0.188044 6.6921 0.435726 6.60364L18.8188 0.0382579C19.038 -0.0400244 19.2822 0.00359465 19.4608 0.152905ZM2.32626 7.32275L5.86168 9.09046L13.4231 4.0495C13.6925 3.86994 14.0525 3.91349 14.2712 4.1521C14.49 4.3907 14.5022 4.75314 14.3 5.00591L9.49502 11.0121L15.9328 15.3039L18.2083 1.65058L2.32626 7.32275Z" fill="currentColor"></path></svg><svg viewBox="0 0 28 22" fill="none" id="page-footer_vkontakte"><path d="M1 5.33876C1 4.48373 1.5151 4.02268 2.54531 3.95562L6.51515 3.98077C6.78158 3.98077 6.95921 4.10651 7.04802 4.35799C7.45655 5.61538 7.91392 6.70094 8.42014 7.61465C8.92637 8.52835 9.58801 9.58038 10.4051 10.7707C10.4761 10.9216 10.5916 10.997 10.7514 10.997C10.8758 10.997 10.9735 10.9384 11.0445 10.821L11.1244 10.5444L11.1511 6.19379C11.1511 5.89201 11.0756 5.69083 10.9246 5.59024C10.7736 5.48965 10.4939 5.4142 10.0853 5.36391C9.76563 5.31361 9.60577 5.12919 9.60577 4.81065C9.60577 4.74359 9.61465 4.69329 9.63241 4.65976C10.0054 3.57002 11.0711 3.02515 12.8296 3.02515L14.3216 3C14.9966 3 15.5561 3.15927 16.0001 3.47781C16.4442 3.79635 16.6662 4.29931 16.6662 4.98669V10.6953C16.7906 10.7791 16.906 10.821 17.0126 10.821C17.279 10.821 17.5099 10.6701 17.7053 10.3683C19.6592 7.78649 20.716 6.05966 20.8759 5.18787C20.8759 5.1711 20.8936 5.12919 20.9291 5.06213C21.0535 4.81065 21.2577 4.5927 21.5419 4.40828C21.8261 4.22387 22.0748 4.09813 22.288 4.03107C22.359 3.99753 22.4389 3.98077 22.5277 3.98077H26.6574L26.9239 4.00592C27.2791 4.00592 27.5544 4.16519 27.7498 4.48373C27.8209 4.58432 27.8697 4.69329 27.8964 4.81065C27.923 4.92801 27.9408 5.04536 27.9496 5.16272C27.9585 5.28008 27.963 5.34714 27.963 5.36391V5.53994C27.8386 6.22732 27.5233 6.9608 27.0171 7.74038C26.5109 8.51997 25.867 9.36243 25.0855 10.2678C24.304 11.1731 23.8155 11.7682 23.6201 12.0533C23.4603 12.2544 23.3803 12.4389 23.3803 12.6065C23.3803 12.7406 23.4514 12.8915 23.5935 13.0592L27.4834 17.6864C27.6965 17.9546 27.8031 18.248 27.8031 18.5666C27.8031 18.9522 27.6432 19.2707 27.3235 19.5222C27.0038 19.7737 26.6219 19.9162 26.1779 19.9497L25.7249 19.9749H21.6752C21.6574 19.9749 21.6219 19.979 21.5686 19.9874C21.5153 19.9958 21.4798 20 21.462 20C21.0712 20 20.7071 19.8407 20.3696 19.5222C20.2453 19.3881 19.4105 18.3989 17.8652 16.5547C17.7764 16.4374 17.652 16.3284 17.4922 16.2278C17.4211 16.4961 17.3279 16.8817 17.2124 17.3846C17.097 17.8876 17.0126 18.248 16.9593 18.466L16.8794 18.8935C16.7018 19.4803 16.3287 19.8323 15.7604 19.9497L15.3874 19.9749H12.7763C11.3021 19.9749 9.83224 19.3378 8.36686 18.0636C6.90148 16.7894 5.58264 15.1423 4.41034 13.122C3.23803 11.1018 2.14566 8.75049 1.13322 6.06805C1.04441 5.8501 1 5.607 1 5.33876ZM17.0126 11.8521C16.6396 11.8521 16.3021 11.7557 16.0001 11.5629C15.6982 11.3701 15.5472 11.106 15.5472 10.7707V4.98669C15.5472 4.65138 15.4584 4.41248 15.2808 4.26997C15.1032 4.12747 14.7923 4.05621 14.3483 4.05621L12.8296 4.10651C12.0658 4.10651 11.4886 4.23225 11.0978 4.48373C11.8793 4.8358 12.2701 5.40582 12.2701 6.19379V10.6198C12.2346 11.039 12.0569 11.3868 11.7372 11.6635C11.4175 11.9401 11.0623 12.0784 10.6715 12.0784C10.1386 12.0784 9.7301 11.8353 9.44591 11.3491C8.06046 9.37081 7.03025 7.4931 6.35529 5.71598L6.1155 5.06213L2.57195 5.03698C2.34104 5.03698 2.21227 5.04956 2.18562 5.0747C2.15898 5.09985 2.14566 5.1711 2.14566 5.28846C2.14566 5.43935 2.16342 5.59862 2.19895 5.76627L2.75845 7.17456C4.25048 10.8126 5.87127 13.6795 7.62085 15.7751C9.37042 17.8708 11.0889 18.9186 12.7763 18.9186H15.4406C15.5472 18.9186 15.6271 18.8893 15.6804 18.8306C15.7337 18.7719 15.7781 18.6588 15.8136 18.4911L15.8669 18.2396L16.3732 16.0266C16.5152 15.7249 16.6396 15.5237 16.7462 15.4231C16.9415 15.2387 17.1725 15.1465 17.4389 15.1465C17.8652 15.1465 18.3003 15.3895 18.7444 15.8757L21.0091 18.5917C21.1512 18.8097 21.3022 18.9186 21.462 18.9186H25.8581C26.391 18.9186 26.6574 18.7929 26.6574 18.5414C26.6574 18.4576 26.6308 18.3738 26.5775 18.2899L22.7142 13.7382C22.4123 13.3861 22.2613 13.0089 22.2613 12.6065C22.2613 12.2041 22.4034 11.8185 22.6876 11.4497C22.9185 11.1144 23.367 10.557 24.0331 9.77737C24.6992 8.99778 25.2809 8.26849 25.7782 7.5895C26.2756 6.9105 26.6042 6.29438 26.764 5.74112L26.8439 5.4142C26.8262 5.38067 26.8173 5.32618 26.8173 5.25074C26.8173 5.1753 26.8084 5.11243 26.7907 5.06213H22.6077C22.3412 5.16272 22.1281 5.31361 21.9682 5.51479L21.8084 5.9926C21.3643 7.14941 20.2009 8.93491 18.3181 11.3491C17.9451 11.6844 17.5099 11.8521 17.0126 11.8521Z" fill="currentColor"></path></svg><svg viewBox="0 0 24 19" fill="none" id="page-footer_youtube"><path d="M15.8509 8.79275L10.6145 5.30184C10.5159 5.23691 10.4016 5.19985 10.2837 5.19459C10.1657 5.18934 10.0486 5.21608 9.94459 5.27198C9.84061 5.32789 9.75368 5.41087 9.69302 5.51215C9.63236 5.61343 9.60022 5.72924 9.6 5.84729V12.8291C9.60013 12.9481 9.6327 13.0648 9.69421 13.1667C9.75572 13.2686 9.84384 13.3518 9.94909 13.4073C10.0524 13.4631 10.1691 13.4895 10.2864 13.4837C10.4037 13.478 10.5172 13.4402 10.6145 13.3746L15.8509 9.88366C15.9409 9.82395 16.0148 9.7429 16.0658 9.64772C16.1169 9.55255 16.1436 9.44621 16.1436 9.3382C16.1436 9.23019 16.1169 9.12385 16.0658 9.02868C16.0148 8.93351 15.9409 8.85245 15.8509 8.79275ZM10.9091 11.6073V7.06911L14.3127 9.3382L10.9091 11.6073ZM23.3891 3.04366C23.2942 2.67547 23.1131 2.33511 22.8609 2.05061C22.6086 1.76611 22.2924 1.54561 21.9382 1.40729C18.2182 -0.0217993 12.2509 1.91553e-05 12 1.91553e-05C11.7491 1.91553e-05 5.78182 -0.0217993 2.06182 1.40729C1.70764 1.54561 1.3914 1.76611 1.13914 2.05061C0.886889 2.33511 0.705838 2.67547 0.610909 3.04366C0.327273 4.11275 0 6.07638 0 9.3382C0 12.6 0.327273 14.5637 0.610909 15.6327C0.705838 16.0009 0.886889 16.3413 1.13914 16.6258C1.3914 16.9103 1.70764 17.1308 2.06182 17.2691C5.78182 18.6982 11.7491 18.6764 12 18.6764H12.0764C12.8291 18.6764 18.3927 18.6327 21.9382 17.2691C22.2924 17.1308 22.6086 16.9103 22.8609 16.6258C23.1131 16.3413 23.2942 16.0009 23.3891 15.6327C23.6727 14.5637 24 12.6 24 9.3382C24 6.07638 23.6727 4.11275 23.3891 3.04366ZM22.1236 15.3055C22.0807 15.472 21.999 15.6259 21.8853 15.7548C21.7715 15.8838 21.6289 15.984 21.4691 16.0473C17.9782 17.3891 12.0655 17.3673 12 17.3673C11.9345 17.3673 6.02182 17.3891 2.53091 16.0473C2.37107 15.984 2.22846 15.8838 2.11471 15.7548C2.00096 15.6259 1.91929 15.472 1.87636 15.3055C1.61455 14.3018 1.30909 12.4582 1.30909 9.3382C1.30909 6.2182 1.61455 4.37457 1.87636 3.37093C1.91929 3.20445 2.00096 3.05047 2.11471 2.92156C2.22846 2.79264 2.37107 2.69243 2.53091 2.62911C6.02182 1.28729 11.9345 1.30911 12 1.30911C12.0655 1.30911 17.9782 1.28729 21.4691 2.62911C21.6289 2.69243 21.7715 2.79264 21.8853 2.92156C21.999 3.05047 22.0807 3.20445 22.1236 3.37093C22.3855 4.37457 22.6909 6.2182 22.6909 9.3382C22.6909 12.4582 22.3855 14.3018 22.1236 15.3055Z" fill="currentColor"></path></svg><svg viewBox="0 0 26 26" fill="none" id="profile_checkbox-tick"><path d="M10 19.499L2.4 10.901L1 12.4848L10 22.6667L25 5.69697L23.6 4L10 19.499Z" fill="#68B738"></path></svg><svg viewBox="0 0 20 20" fill="none" id="profile_email-icon"><path d="M1.50034 8.5V16.5H18.5041V8.5M1.50034 3.5H18.5041V5.5L10.0022 11.5L1.50034 5.5V3.5Z" stroke="black" stroke-linecap="round" stroke-linejoin="round"></path></svg><svg viewBox="0 0 20 20" fill="none" id="profile_phone-icon"><path d="M10.0022 10H18.5041M18.5041 10L16.0036 7.5M18.5041 10L16.0036 12.5M8.50191 2.5V7.5H5.50124V12.5H8.50191V17.5H6.00135C4.50102 17.5 3.50079 16.5 3.50079 15V5C3.50079 3.5 4.50102 2.5 6.00135 2.5H8.50191Z" stroke="black" stroke-linecap="round" stroke-linejoin="round"></path></svg></svg>